<svg xmlns="http://www.w3.org/2000/svg" width="1400" height="900" viewBox="0 0 1400 900">
  <defs>
    <linearGradient id="sunGrad" x1="0" y1="0" x2="0" y2="1">
      <stop offset="0" stop-color="#F7C96B"/>
      <stop offset="1" stop-color="#F3B544"/>
    </linearGradient>
    <linearGradient id="waveGrad" x1="0" y1="0" x2="1" y2="1">
      <stop offset="0" stop-color="#7CC7F2"/>
      <stop offset="0.45" stop-color="#1F78C8"/>
      <stop offset="1" stop-color="#163A63"/>
    </linearGradient>
    <style>
      .title { font: 700 120px Georgia, 'Times New Roman', serif; fill: #163A63; }
      .subtitle { font: 700 38px Arial, Helvetica, sans-serif; letter-spacing: 9px; fill: #1F78C8; }
      .tag { font: italic 56px 'Brush Script MT', cursive; fill: #F3B544; }
      .strokeNavy { stroke: #163A63; stroke-width: 6; stroke-linejoin: round; stroke-linecap: round; }
    </style>
  </defs>
  <rect width="100%" height="100%" fill="white"/>
  <g transform="translate(0,-10)">
    <circle cx="700" cy="220" r="145" fill="url(#sunGrad)"/>
    <g fill="white" opacity="0.9">
      <path d="M565 190c22-24 54-22 73 1h-73z"/>
      <path d="M785 183c24-26 58-25 81 2h-81z"/>
      <path d="M620 240c18-20 43-19 58 1h-58z"/>
    </g>
    <g fill="#163A63" opacity="0.9">
      <path d="M908 138c18-15 38-13 55 3-19-3-38-2-55-3z"/>
      <path d="M947 170c14-12 30-10 42 2-14-2-28-1-42-2z"/>
    </g>
    <g>
      <path d="M330 400 C 430 300, 525 315, 610 430 C 548 430, 490 470, 415 465 C 382 460, 350 438, 330 400 Z" fill="url(#waveGrad)"/>
      <path d="M1070 400 C 970 300, 875 315, 790 430 C 852 430, 910 470, 985 465 C 1018 460, 1050 438, 1070 400 Z" fill="url(#waveGrad)"/>
      <path d="M368 382 C 450 325, 535 340, 602 430 C 555 402, 485 398, 430 420 C 404 426, 382 411, 368 382 Z" fill="white"/>
      <path d="M1032 382 C 950 325, 865 340, 798 430 C 845 402, 915 398, 970 420 C 996 426, 1018 411, 1032 382 Z" fill="white"/>
      <path d="M300 505 C 420 485, 540 505, 700 570 C 522 566, 410 560, 300 505 Z" fill="#F7F4EC" stroke="#163A63" stroke-width="5"/>
      <path d="M1100 505 C 980 485, 860 505, 700 570 C 878 566, 990 560, 1100 505 Z" fill="#F7F4EC" stroke="#163A63" stroke-width="5"/>
      <path d="M312 528 C 430 508, 548 526, 700 588 C 540 582, 428 579, 312 528 Z" fill="#F7F4EC" opacity="0.95"/>
      <path d="M1088 528 C 970 508, 852 526, 700 588 C 860 582, 972 579, 1088 528 Z" fill="#F7F4EC" opacity="0.95"/>
      <path d="M285 550 Q 700 510 1115 550 L 1080 585 Q 700 555 320 585 Z" fill="#163A63"/>
    </g>
    <g transform="translate(700,355)">
      <path d="M0 -140 L95 -108 L78 72 Q 52 95 0 112 Q -52 95 -78 72 L-95 -108 Z" fill="white" class="strokeNavy"/>
      <path d="M0 -22 L72 -6 L58 60 Q 40 79 0 94 Q -40 79 -58 60 L-72 -6 Z" fill="#163A63"/>
      <path d="M-120 -148 Q 0 -188 120 -148 L 114 -114 Q 0 -144 -114 -114 Z" fill="white" class="strokeNavy"/>
      <path d="M-95 -186 Q 0 -215 95 -186 L 88 -155 Q 0 -178 -88 -155 Z" fill="white" class="strokeNavy"/>
      <path d="M0 -248 L 0 -205" stroke="#163A63" stroke-width="8"/>
      <path d="M0 -248 L -18 -223 L 18 -223 Z" fill="#163A63"/>
      <g fill="#163A63">
        <circle cx="-55" cy="-70" r="5"/><circle cx="-30" cy="-62" r="5"/><circle cx="30" cy="-62" r="5"/><circle cx="55" cy="-70" r="5"/>
        <circle cx="-48" cy="20" r="4"/><circle cx="-25" cy="28" r="4"/><circle cx="25" cy="28" r="4"/><circle cx="48" cy="20" r="4"/>
      </g>
      <g fill="#163A63">
        <rect x="-90" y="-140" width="18" height="18"/><rect x="-64" y="-140" width="18" height="18"/><rect x="-38" y="-140" width="18" height="18"/><rect x="-12" y="-140" width="18" height="18"/>
        <rect x="12" y="-140" width="18" height="18"/><rect x="38" y="-140" width="18" height="18"/><rect x="64" y="-140" width="18" height="18"/>
      </g>
    </g>
    <g fill="white">
      <path d="M522 425 C 555 396, 598 394, 639 431 C 615 433, 592 447, 567 456 C 543 456, 526 447, 522 425 Z"/>
      <path d="M878 425 C 845 396, 802 394, 761 431 C 785 433, 808 447, 833 456 C 857 456, 874 447, 878 425 Z"/>
    </g>
  </g>
  <g transform="translate(0,25)">
    <text x="700" y="700" text-anchor="middle" class="title">Deck Days</text>
    <line x1="310" y1="760" x2="480" y2="760" stroke="#1F78C8" stroke-width="4"/>
    <line x1="920" y1="760" x2="1090" y2="760" stroke="#1F78C8" stroke-width="4"/>
    <text x="700" y="775" text-anchor="middle" class="subtitle">CRUISE JOURNAL</text>
    <text x="700" y="845" text-anchor="middle" class="tag">Capture every day at sea</text>
  </g>
</svg>