<svg xmlns="http://www.w3.org/2000/svg" width="1000" height="1200" viewBox="0 0 1000 1200">
  <defs>
    <linearGradient id="sunGrad" x1="0" y1="0" x2="0" y2="1">
      <stop offset="0" stop-color="#F7C96B"/><stop offset="1" stop-color="#F3B544"/>
    </linearGradient>
    <linearGradient id="waveGrad" x1="0" y1="0" x2="1" y2="1">
      <stop offset="0" stop-color="#7CC7F2"/><stop offset="0.45" stop-color="#1F78C8"/><stop offset="1" stop-color="#163A63"/>
    </linearGradient>
    <style>
      .title { font: 700 100px Georgia, 'Times New Roman', serif; fill: #163A63; }
      .subtitle { font: 700 34px Arial, Helvetica, sans-serif; letter-spacing: 8px; fill: #1F78C8; }
      .tag { font: italic 48px 'Brush Script MT', cursive; fill: #F3B544; }
      .strokeNavy { stroke: #163A63; stroke-width: 6; stroke-linejoin: round; stroke-linecap: round; }
    </style>
  </defs>
  <rect width="100%" height="100%" fill="white"/>
  <g transform="translate(500,330)">
    <circle cx="0" cy="-110" r="145" fill="url(#sunGrad)"/>
    <g fill="#163A63" opacity="0.9"><path d="M175 -200c18-15 38-13 55 3-19-3-38-2-55-3z"/><path d="M215 -168c14-12 30-10 42 2-14-2-28-1-42-2z"/></g>
    <path d="M-370 70 C -270 -30, -175 -15, -90 100 C -152 100, -210 140, -285 135 C -318 130, -350 108, -370 70 Z" fill="url(#waveGrad)"/>
    <path d="M370 70 C 270 -30, 175 -15, 90 100 C 152 100, 210 140, 285 135 C 318 130, 350 108, 370 70 Z" fill="url(#waveGrad)"/>
    <path d="M-332 52 C -250 -5, -165 10, -98 100 C -145 72, -215 68, -270 90 C -296 96, -318 81, -332 52 Z" fill="white"/>
    <path d="M332 52 C 250 -5, 165 10, 98 100 C 145 72, 215 68, 270 90 C 296 96, 318 81, 332 52 Z" fill="white"/>
    <path d="M-400 175 C -280 155, -160 175, 0 240 C -178 236, -290 230, -400 175 Z" fill="#F7F4EC" stroke="#163A63" stroke-width="5"/>
    <path d="M400 175 C 280 155, 160 175, 0 240 C 178 236, 290 230, 400 175 Z" fill="#F7F4EC" stroke="#163A63" stroke-width="5"/>
    <path d="M-388 198 C -270 178, -152 196, 0 258 C -160 252, -272 249, -388 198 Z" fill="#F7F4EC" opacity="0.95"/>
    <path d="M388 198 C 270 178, 152 196, 0 258 C 160 252, 272 249, 388 198 Z" fill="#F7F4EC" opacity="0.95"/>
    <path d="M-415 220 Q 0 180 415 220 L 380 255 Q 0 225 -380 255 Z" fill="#163A63"/>
    <g transform="translate(0,25)">
      <path d="M0 -140 L95 -108 L78 72 Q 52 95 0 112 Q -52 95 -78 72 L-95 -108 Z" fill="white" class="strokeNavy"/>
      <path d="M0 -22 L72 -6 L58 60 Q 40 79 0 94 Q -40 79 -58 60 L-72 -6 Z" fill="#163A63"/>
      <path d="M-120 -148 Q 0 -188 120 -148 L 114 -114 Q 0 -144 -114 -114 Z" fill="white" class="strokeNavy"/>
      <path d="M-95 -186 Q 0 -215 95 -186 L 88 -155 Q 0 -178 -88 -155 Z" fill="white" class="strokeNavy"/>
      <path d="M0 -248 L 0 -205" stroke="#163A63" stroke-width="8"/><path d="M0 -248 L -18 -223 L 18 -223 Z" fill="#163A63"/>
    </g>
  </g>
  <text x="500" y="760" text-anchor="middle" class="title">Deck Days</text>
  <line x1="195" y1="820" x2="340" y2="820" stroke="#1F78C8" stroke-width="4"/>
  <line x1="660" y1="820" x2="805" y2="820" stroke="#1F78C8" stroke-width="4"/>
  <text x="500" y="835" text-anchor="middle" class="subtitle">CRUISE JOURNAL</text>
  <text x="500" y="905" text-anchor="middle" class="tag">Capture every day at sea</text>
</svg>